<?xml version="1.0" encoding="UTF-8" standalone="no"?>
<!-- Created with Inkscape (http://www.inkscape.org/) -->

<svg
   version="1.1"
   id="svg1"
   width="55.797607"
   height="66.081787"
   viewBox="0 0 55.797609 66.081789"
   sodipodi:docname="INKA -- WEBSITE_DR EDUARDO FLORES.pdf"
   xmlns:inkscape="http://www.inkscape.org/namespaces/inkscape"
   xmlns:sodipodi="http://sodipodi.sourceforge.net/DTD/sodipodi-0.dtd"
   xmlns="http://www.w3.org/2000/svg"
   xmlns:svg="http://www.w3.org/2000/svg">
  <defs
     id="defs1">
    <clipPath
       clipPathUnits="userSpaceOnUse"
       id="clipPath203">
      <path
         d="M 0,5035.667 H 1366 V 0 H 0 Z"
         transform="translate(-878.65502,-3912.38)"
         id="path203" />
    </clipPath>
    <clipPath
       clipPathUnits="userSpaceOnUse"
       id="clipPath205">
      <path
         d="M 0,5035.667 H 1366 V 0 H 0 Z"
         transform="translate(-859.28995,-3903.0147)"
         id="path205" />
    </clipPath>
  </defs>
  <sodipodi:namedview
     id="namedview1"
     pagecolor="#505050"
     bordercolor="#eeeeee"
     borderopacity="1"
     inkscape:showpageshadow="0"
     inkscape:pageopacity="0"
     inkscape:pagecheckerboard="0"
     inkscape:deskcolor="#505050"
     showgrid="false">
    <inkscape:page
       x="2.485533e-05"
       y="-6.8308468e-06"
       width="55.797607"
       height="66.081787"
       id="page2"
       margin="0"
       bleed="0" />
  </sodipodi:namedview>
  <g
     id="layer-MC0"
     inkscape:groupmode="layer"
     inkscape:label="Capa 1"
     transform="translate(2013.3649,-2875.3903)">
    <g
       id="g1855">
      <path
         id="path1854"
         d="m 0,0 c -0.037,0.002 -0.075,0.004 -0.112,0.006 0,1.695 -0.008,3.39 0.007,5.085 0.003,0.314 -0.072,0.482 -0.384,0.612 -5.436,2.245 -10.864,4.506 -16.3,6.749 -0.209,0.086 -0.514,0.087 -0.723,10e-4 -5.436,-2.242 -10.864,-4.504 -16.299,-6.75 -0.299,-0.124 -0.403,-0.268 -0.401,-0.598 0.015,-2.647 -0.061,-5.296 0.033,-7.94 0.066,-1.862 0.185,-3.754 0.575,-5.569 2.018,-9.384 7.425,-16.137 16.058,-20.32 0.271,-0.132 0.486,-0.142 0.765,-0.013 4.189,1.944 7.729,4.709 10.572,8.348 3.176,4.066 5.172,8.654 5.801,13.779 C -0.14,-4.423 -0.128,-2.204 0,0 m -17.545,-32.942 c -3.406,1.377 -6.529,3.221 -9.299,5.642 -5.502,4.809 -9.018,10.792 -10.55,17.937 -0.488,2.28 -0.692,4.59 -0.686,6.921 0.008,3.001 0.002,6.003 0.003,9.005 0,1.14 0.386,1.715 1.441,2.153 6.174,2.564 12.351,5.123 18.521,7.697 0.656,0.274 1.265,0.275 1.915,0.004 C -10.029,13.846 -3.855,11.279 2.323,8.724 3.308,8.317 3.774,7.633 3.768,6.563 3.75,3.497 3.767,0.43 3.761,-2.636 3.735,-15.896 -3.981,-27.518 -16.196,-32.7 c -0.191,-0.081 -0.383,-0.161 -0.575,-0.242 z"
         style="fill:#0090b7;fill-opacity:1;fill-rule:nonzero;stroke:none"
         transform="matrix(1.3333333,0,0,-1.3333333,-1962.5916,2897.5496)"
         clip-path="url(#clipPath203)" />
      <path
         id="path1855"
         d="m 0,0 c 1.732,1.738 3.337,3.348 4.942,4.957 1.105,1.108 2.21,2.216 3.319,3.319 0.887,0.882 2.082,0.929 2.879,0.12 C 11.927,7.599 11.882,6.422 11.014,5.552 7.869,2.4 4.721,-0.748 1.57,-3.892 c -0.955,-0.953 -2.058,-0.945 -3.017,0.011 -1.747,1.743 -3.493,3.486 -5.234,5.236 -0.557,0.561 -0.751,1.235 -0.502,1.998 0.235,0.718 0.746,1.158 1.485,1.304 0.728,0.144 1.324,-0.127 1.834,-0.64 1.171,-1.178 2.35,-2.348 3.52,-3.528 C -0.221,0.365 -0.139,0.2 0,0"
         style="fill:#0090b7;fill-opacity:1;fill-rule:nonzero;stroke:none"
         transform="matrix(1.3333333,0,0,-1.3333333,-1988.4117,2910.0367)"
         clip-path="url(#clipPath205)" />
    </g>
  </g>
</svg>
