<?xml version="1.0" encoding="UTF-8" standalone="no"?>
<!-- Created with Inkscape (http://www.inkscape.org/) -->

<svg
   version="1.1"
   id="svg1"
   width="681.84131"
   height="1013.8931"
   viewBox="0 0 681.84133 1013.8932"
   sodipodi:docname="INKA -- WEBSITE_DR EDUARDO FLORES.pdf"
   xmlns:inkscape="http://www.inkscape.org/namespaces/inkscape"
   xmlns:sodipodi="http://sodipodi.sourceforge.net/DTD/sodipodi-0.dtd"
   xmlns:xlink="http://www.w3.org/1999/xlink"
   xmlns="http://www.w3.org/2000/svg"
   xmlns:svg="http://www.w3.org/2000/svg">
  <defs
     id="defs1">
    <clipPath
       clipPathUnits="userSpaceOnUse"
       id="clipPath164">
      <path
         d="m 1.3,2652.284 h 596.463 v 904 H 1.3 Z"
         transform="translate(-550.79081,-3097.6371)"
         id="path164" />
    </clipPath>
    <clipPath
       clipPathUnits="userSpaceOnUse"
       id="clipPath165">
      <path
         d="M -247.743,3476.52 H 512.681 V 2716.1 h -760.424 z"
         transform="translate(-512.68102,-3096.3077)"
         id="path165" />
    </clipPath>
    <clipPath
       clipPathUnits="userSpaceOnUse"
       id="clipPath167">
      <path
         d="m 1.3,2652.284 h 596.463 v 904 H 1.3 Z"
         transform="matrix(1.3333333,0,0,-1.3333333,0,6714.2267)"
         id="path167" />
    </clipPath>
    <clipPath
       clipPathUnits="userSpaceOnUse"
       id="clipPath218">
      <path
         d="M 0,5035.667 H 1366 V 0 H 0 Z"
         transform="translate(-502.98101,-2705.3301)"
         id="path218" />
    </clipPath>
    <linearGradient
       x1="0"
       y1="0"
       x2="1"
       y2="0"
       gradientUnits="userSpaceOnUse"
       gradientTransform="matrix(20.251015,0,0,-20.251015,442.22775,3446.772)"
       spreadMethod="pad"
       id="linearGradient225">
      <stop
         style="stop-opacity:1;stop-color:#00dfff"
         offset="0"
         id="stop224" />
      <stop
         style="stop-opacity:1;stop-color:#00b4f4"
         offset="1"
         id="stop225" />
    </linearGradient>
    <linearGradient
       inkscape:collect="always"
       xlink:href="#linearGradient225"
       id="linearGradient1921"
       gradientUnits="userSpaceOnUse"
       gradientTransform="matrix(27.001353,0,0,27.001353,-2544.4946,3497.7139)"
       x1="0"
       y1="0"
       x2="1"
       y2="0"
       spreadMethod="pad" />
  </defs>
  <sodipodi:namedview
     id="namedview1"
     pagecolor="#505050"
     bordercolor="#eeeeee"
     borderopacity="1"
     inkscape:showpageshadow="0"
     inkscape:pageopacity="0"
     inkscape:pagecheckerboard="0"
     inkscape:deskcolor="#505050"
     showgrid="false">
    <inkscape:page
       x="7.1110597e-05"
       y="-0.00015675198"
       width="681.84131"
       height="1013.8931"
       id="page2"
       margin="0"
       bleed="0" />
  </sodipodi:namedview>
  <g
     id="layer-MC0"
     inkscape:groupmode="layer"
     inkscape:label="Capa 1"
     transform="translate(3132.3971,-3458.0502)">
    <path
       id="path1890"
       d="m 0,0 c 0,-227.851 -184.71,-412.561 -412.561,-412.561 -227.851,0 -412.561,184.71 -412.561,412.561 0,227.851 184.71,412.561 412.561,412.561 C -184.71,412.561 0,227.851 0,0"
       style="fill:#0090b7;fill-opacity:1;fill-rule:nonzero;stroke:none"
       transform="matrix(1.3333333,0,0,-1.3333333,-2399.7438,3963.2271)"
       clip-path="url(#clipPath164)" />
    <g
       opacity="0.429993"
       id="g1891"
       clip-path="url(#clipPath167)"
       transform="translate(-3134.1316,1379.1831)">
      <path
         d="m 0,0 c 0,-209.985 -170.227,-380.212 -380.212,-380.212 -209.985,0 -380.212,170.227 -380.212,380.212 0,209.985 170.227,380.212 380.212,380.212 C -170.227,380.212 0,209.985 0,0"
         style="fill:#063f5c;fill-opacity:1;fill-rule:nonzero;stroke:none"
         transform="matrix(1.3333333,0,0,-1.3333333,683.57467,2585.8165)"
         clip-path="url(#clipPath165)"
         id="path1891" />
    </g>
    <text
       id="text1910"
       xml:space="preserve"
       x="-3062.9395"
       y="4102.2012"
       style="font-size:16px;stroke-width:1.33333"><tspan
         style="font-variant:normal;font-stretch:normal;font-size:24.0385px;font-family:'Acumin Variable Concept';writing-mode:lr-tb;fill:#ffffff;fill-opacity:1;fill-rule:nonzero;stroke:none;stroke-width:1.33333"
         x="-3062.9395 -3045.127 -3031.6174 -2978.8528 -2913.0352 -2892.5786 -2879.0688 -2847.5063 -2779.6936 -2772.0251 -2744.6694 -2670.7991"
         y="4102.2012"
         sodipodi:role="line"
         id="tspan1908">	  </tspan><tspan
         style="font-variant:normal;font-stretch:normal;font-size:24.0385px;font-family:'Acumin Variable Concept';writing-mode:lr-tb;fill:#ffffff;fill-opacity:1;fill-rule:nonzero;stroke:none;stroke-width:1.33333"
         x="-3062.9395 -3042.627 -3029.9587 -3006.4971 -2972.074 -2949.4561 -2915.2708 -2737.9409 -2724.6238 -2677.3879 -2663.8784 -2620.467"
         y="4131.0474"
         sodipodi:role="line"
         id="tspan1909">	 	  </tspan><tspan
         style="font-variant:normal;font-stretch:normal;font-size:24.0385px;font-family:'Acumin Variable Concept';writing-mode:lr-tb;fill:#ffffff;fill-opacity:1;fill-rule:nonzero;stroke:none;stroke-width:1.33333"
         x="-3038.3481 -2882.0303 -2870.4175"
         y="4159.894"
         sodipodi:role="line"
         id="tspan1910"></tspan></text>
    <path
       id="path1911"
       d="m 0,0 h -15.884 v 15.885 h -8.734 V 0 h -15.884 v -8.733 h 15.884 v -15.885 h 8.734 V -8.733 H 0 Z"
       style="fill:none;stroke:#007dc2;stroke-width:1.244;stroke-linecap:butt;stroke-linejoin:miter;stroke-miterlimit:10;stroke-dasharray:none;stroke-opacity:1"
       transform="matrix(1.3333333,0,0,-1.3333333,-2463.4902,4486.303)"
       clip-path="url(#clipPath218)" />
    <path
       id="path1915"
       d="m -2533.9063,3484.2139 v 10.588 h -10.588 v 5.824 h 10.588 v 10.5893 h 5.824 v -10.5893 h 10.5894 v -5.824 h -10.5894 v -10.588 z"
       style="fill:url(#linearGradient1921);stroke:none;stroke-width:1.33333" />
  </g>
</svg>
