<?xml version="1.0" encoding="UTF-8" standalone="no"?>
<!-- Created with Inkscape (http://www.inkscape.org/) -->

<svg
   version="1.1"
   id="svg1"
   width="55.126343"
   height="69.922607"
   viewBox="0 0 55.126344 69.922609"
   sodipodi:docname="INKA -- WEBSITE_DR EDUARDO FLORES.pdf"
   xmlns:inkscape="http://www.inkscape.org/namespaces/inkscape"
   xmlns:sodipodi="http://sodipodi.sourceforge.net/DTD/sodipodi-0.dtd"
   xmlns="http://www.w3.org/2000/svg"
   xmlns:svg="http://www.w3.org/2000/svg">
  <defs
     id="defs1">
    <clipPath
       clipPathUnits="userSpaceOnUse"
       id="clipPath13">
      <path
         d="M 0,5035.667 H 1366 V 0 H 0 Z"
         transform="translate(-1005.7386,-3894.8968)"
         id="path13" />
    </clipPath>
    <clipPath
       clipPathUnits="userSpaceOnUse"
       id="clipPath15">
      <path
         d="M 0,5035.667 H 1366 V 0 H 0 Z"
         transform="translate(-991.84232,-3924.1275)"
         id="path15" />
    </clipPath>
    <clipPath
       clipPathUnits="userSpaceOnUse"
       id="clipPath17">
      <path
         d="M 0,5035.667 H 1366 V 0 H 0 Z"
         transform="translate(-997.75795,-3911.3983)"
         id="path17" />
    </clipPath>
  </defs>
  <sodipodi:namedview
     id="namedview1"
     pagecolor="#505050"
     bordercolor="#eeeeee"
     borderopacity="1"
     inkscape:showpageshadow="0"
     inkscape:pageopacity="0"
     inkscape:pagecheckerboard="0"
     inkscape:deskcolor="#505050"
     showgrid="false">
    <inkscape:page
       x="-5.3224485e-05"
       y="1.0529566e-05"
       width="55.126343"
       height="69.922607"
       id="page2"
       margin="0"
       bleed="0" />
  </sodipodi:namedview>
  <g
     id="layer-MC0"
     inkscape:groupmode="layer"
     inkscape:label="Capa 1"
     transform="translate(1839.1842,-2872.8808)">
    <g
       id="g1856">
      <path
         id="path1843"
         d="m 0,0 c -2.521,-2.259 -5.347,-3.776 -8.538,-4.667 1.016,-2.355 2.001,-4.641 3.028,-7.023 0.818,1.316 1.583,2.534 2.335,3.759 0.77,1.253 0.742,1.302 2.176,0.963 0.119,-0.029 0.241,-0.051 0.361,-0.075 C 0.669,-7.307 1.976,-7.57 3.381,-7.853 2.241,-5.206 1.139,-2.646 0,0 m -31.068,-9.709 c 0.174,0.017 0.258,0.021 0.341,0.035 1.543,0.267 3.085,0.539 4.628,0.801 0.718,0.122 0.906,0.025 1.281,-0.62 0.735,-1.262 1.467,-2.526 2.201,-3.788 0.093,-0.159 0.197,-0.311 0.33,-0.52 1.397,3.004 2.758,5.93 4.136,8.893 -3.268,0.722 -6.139,2.107 -8.736,4.181 -1.401,-3.01 -2.776,-5.964 -4.181,-8.982 m 17.212,6.042 C -3.393,-3.652 5.106,4.864 5.101,15.326 5.095,25.796 -3.412,34.299 -13.873,34.292 -24.337,34.286 -32.842,25.769 -32.829,15.309 -32.817,4.839 -24.296,-3.683 -13.856,-3.667 M 6.816,15.935 C 6.737,10.102 5.026,5.553 1.613,1.658 1.368,1.378 1.331,1.162 1.479,0.823 c 1.336,-3.066 2.653,-6.14 3.981,-9.21 0.167,-0.387 0.295,-0.772 0.004,-1.146 -0.311,-0.4 -0.733,-0.336 -1.162,-0.248 -1.828,0.378 -3.66,0.737 -5.484,1.131 -0.326,0.07 -0.467,-0.02 -0.627,-0.28 -0.974,-1.593 -1.967,-3.175 -2.946,-4.765 -0.222,-0.36 -0.463,-0.691 -0.934,-0.666 -0.497,0.028 -0.696,0.402 -0.87,0.81 -1.143,2.67 -2.303,5.333 -3.432,8.009 -0.168,0.397 -0.348,0.514 -0.779,0.44 -1.711,-0.295 -3.439,-0.331 -5.162,-0.137 -0.406,0.045 -0.548,-0.081 -0.702,-0.413 -1.535,-3.325 -3.085,-6.642 -4.632,-9.961 -0.044,-0.096 -0.062,-0.223 -0.135,-0.283 -0.256,-0.213 -0.52,-0.538 -0.802,-0.56 -0.252,-0.02 -0.631,0.241 -0.783,0.485 -0.736,1.179 -1.415,2.395 -2.115,3.598 -0.23,0.396 -0.512,0.771 -0.68,1.192 -0.219,0.551 -0.568,0.575 -1.073,0.48 -1.783,-0.336 -3.573,-0.629 -5.358,-0.95 -0.396,-0.071 -0.814,-0.057 -0.974,0.312 -0.127,0.296 -0.142,0.743 -0.01,1.033 1.571,3.443 3.173,6.873 4.785,10.297 0.162,0.344 0.13,0.541 -0.137,0.813 -8.561,8.72 -7.837,22.714 1.567,30.475 12.005,9.908 30.359,3.342 33.383,-11.957 0.262,-1.325 0.331,-2.688 0.414,-3.387"
         style="fill:#0090b7;fill-opacity:1;fill-rule:nonzero;stroke:none"
         transform="matrix(1.3333333,0,0,-1.3333333,-1793.1468,2920.8606)"
         clip-path="url(#clipPath13)" />
      <path
         id="path1844"
         d="m 0,0 c -0.473,-0.211 -0.961,-0.365 -1.378,-0.629 -0.639,-0.405 -1.227,-0.889 -1.84,-1.335 -0.705,-0.512 -1.5,-0.762 -2.365,-0.808 -0.634,-0.034 -1.267,-0.079 -1.901,-0.111 -1.306,-0.066 -2.05,-0.668 -2.367,-1.93 -0.133,-0.53 -0.267,-1.059 -0.375,-1.594 -0.232,-1.145 -0.768,-2.106 -1.646,-2.883 -0.449,-0.397 -0.882,-0.812 -1.31,-1.232 -0.814,-0.798 -0.982,-1.723 -0.495,-2.748 0.302,-0.636 0.615,-1.267 0.941,-1.892 0.458,-0.875 0.577,-1.802 0.463,-2.77 -0.071,-0.613 -0.138,-1.226 -0.214,-1.838 -0.154,-1.24 0.308,-2.086 1.453,-2.579 3.307,-1.423 3.042,-1.18 5.026,-4.213 0.682,-1.044 1.579,-1.354 2.788,-1.002 0.676,0.196 1.353,0.389 2.028,0.591 0.817,0.244 1.63,0.243 2.447,0 0.658,-0.196 1.318,-0.381 1.977,-0.575 1.29,-0.379 2.157,-0.059 2.901,1.07 0.349,0.53 0.701,1.058 1.048,1.589 0.516,0.791 1.206,1.368 2.077,1.736 0.697,0.294 1.397,0.585 2.076,0.919 0.907,0.446 1.355,1.313 1.241,2.306 -0.041,0.35 -0.072,0.702 -0.137,1.048 -0.303,1.622 -0.122,3.156 0.778,4.572 0.122,0.193 0.209,0.408 0.313,0.611 0.785,1.538 0.647,2.312 -0.626,3.505 -0.308,0.289 -0.61,0.587 -0.928,0.866 -0.893,0.783 -1.452,1.752 -1.686,2.918 -0.121,0.604 -0.26,1.206 -0.426,1.799 -0.262,0.933 -0.869,1.519 -1.842,1.666 -0.399,0.06 -0.808,0.086 -1.212,0.079 -1.728,-0.027 -3.258,0.471 -4.558,1.638 -0.3,0.27 -0.628,0.525 -0.98,0.716 C 0.894,-0.305 0.471,-0.184 0,0 m 15.822,-12.22 c -0.21,-0.644 -0.347,-1.324 -0.642,-1.927 -1.479,-3.018 -1.301,-2.18 -0.938,-5.49 0.207,-1.889 -0.653,-3.459 -2.386,-4.229 -3.15,-1.4 -2.47,-0.758 -4.42,-3.705 -1.034,-1.562 -2.716,-2.162 -4.523,-1.65 -0.542,0.153 -1.084,0.31 -1.615,0.497 -0.868,0.305 -1.719,0.288 -2.584,-0.018 -0.563,-0.2 -1.141,-0.363 -1.718,-0.519 -1.603,-0.432 -3.238,0.136 -4.213,1.48 -0.434,0.598 -0.829,1.226 -1.229,1.848 -0.373,0.582 -0.865,1.01 -1.509,1.272 -0.619,0.252 -1.231,0.521 -1.841,0.796 -1.729,0.778 -2.607,2.345 -2.379,4.23 0.072,0.595 0.14,1.19 0.214,1.785 0.089,0.716 0.012,1.401 -0.335,2.049 -0.308,0.574 -0.597,1.158 -0.884,1.743 -0.836,1.706 -0.522,3.475 0.847,4.786 0.471,0.451 0.944,0.901 1.427,1.339 0.515,0.466 0.834,1.036 0.982,1.711 0.133,0.602 0.282,1.2 0.422,1.8 0.447,1.919 1.841,3.101 3.809,3.224 0.563,0.035 1.126,0.088 1.689,0.086 0.893,-0.002 1.64,0.334 2.32,0.882 0.439,0.354 0.893,0.689 1.352,1.018 1.481,1.06 3.252,1.058 4.73,0 0.343,-0.246 0.697,-0.484 1.011,-0.765 0.911,-0.815 1.967,-1.197 3.187,-1.182 0.509,0.006 1.024,-0.016 1.529,-0.085 1.783,-0.242 3.015,-1.378 3.432,-3.128 0.037,-0.154 0.089,-0.307 0.105,-0.463 0.178,-1.731 1.007,-3.069 2.383,-4.12 0.833,-0.637 1.407,-1.478 1.588,-2.542 0.038,-0.224 0.054,-0.453 0.081,-0.68 0.036,-0.014 0.072,-0.028 0.108,-0.043"
         style="fill:#0090b7;fill-opacity:1;fill-rule:nonzero;stroke:none"
         transform="matrix(1.3333333,0,0,-1.3333333,-1811.6752,2881.8863)"
         clip-path="url(#clipPath15)" />
      <path
         id="path1845"
         d="M 0,0 C -1.278,0.069 -2.403,0.127 -3.527,0.191 -4.077,0.223 -4.444,0.508 -4.638,1.023 -4.824,1.517 -5.015,2.009 -5.205,2.502 -5.414,3.048 -5.623,3.594 -5.885,4.277 -6.331,3.109 -6.723,2.096 -7.103,1.078 -7.31,0.524 -7.687,0.215 -8.285,0.186 -8.637,0.169 -8.989,0.143 -9.341,0.125 c -0.764,-0.04 -1.528,-0.078 -2.424,-0.124 0.874,-0.704 1.616,-1.35 2.409,-1.925 0.733,-0.531 0.947,-1.137 0.651,-2.01 -0.318,-0.937 -0.526,-1.91 -0.812,-2.979 0.918,0.599 1.758,1.087 2.53,1.667 0.765,0.575 1.435,0.577 2.202,0.005 0.779,-0.58 1.623,-1.073 2.54,-1.671 -0.301,1.111 -0.537,2.103 -0.843,3.073 -0.247,0.782 -0.07,1.351 0.59,1.841 C -1.681,-1.392 -0.906,-0.729 0,0 M 2.624,0.345 C 2.402,0.029 2.233,-0.35 1.948,-0.593 0.942,-1.449 -0.098,-2.266 -1.138,-3.081 c -0.241,-0.189 -0.308,-0.35 -0.218,-0.661 0.359,-1.233 0.672,-2.479 1.018,-3.716 0.164,-0.588 0.155,-1.12 -0.369,-1.529 -0.457,-0.357 -0.97,-0.324 -1.61,0.093 -1.047,0.682 -2.105,1.352 -3.133,2.062 -0.335,0.231 -0.559,0.209 -0.881,-0.011 -1.017,-0.696 -2.065,-1.347 -3.087,-2.036 -0.525,-0.354 -1.046,-0.514 -1.613,-0.129 -0.489,0.333 -0.596,0.793 -0.388,1.564 0.329,1.223 0.648,2.449 0.998,3.666 0.092,0.317 0.05,0.501 -0.219,0.709 -1.029,0.8 -2.038,1.626 -3.052,2.446 -0.534,0.432 -0.716,0.897 -0.535,1.426 0.195,0.57 0.625,0.813 1.215,0.837 1.285,0.054 2.569,0.139 3.855,0.175 0.39,0.011 0.593,0.129 0.728,0.508 0.432,1.209 0.899,2.406 1.36,3.604 0.246,0.639 0.651,0.967 1.193,0.944 0.621,-0.026 0.979,-0.383 1.189,-0.956 0.447,-1.222 0.931,-2.431 1.376,-3.654 0.115,-0.314 0.278,-0.428 0.61,-0.44 C -1.345,1.772 0.011,1.708 1.365,1.623 2.076,1.578 2.517,1.089 2.624,0.345"
         style="fill:#0090b7;fill-opacity:1;fill-rule:nonzero;stroke:none"
         transform="matrix(1.3333333,0,0,-1.3333333,-1803.7877,2898.8586)"
         clip-path="url(#clipPath17)" />
    </g>
  </g>
</svg>
