<?xml version="1.0" encoding="UTF-8" standalone="no"?>
<!-- Created with Inkscape (http://www.inkscape.org/) -->

<svg
   version="1.1"
   id="svg1"
   width="69.971313"
   height="67.923584"
   viewBox="0 0 69.971315 67.923586"
   sodipodi:docname="INKA -- WEBSITE_DR EDUARDO FLORES.pdf"
   xmlns:inkscape="http://www.inkscape.org/namespaces/inkscape"
   xmlns:sodipodi="http://sodipodi.sourceforge.net/DTD/sodipodi-0.dtd"
   xmlns="http://www.w3.org/2000/svg"
   xmlns:svg="http://www.w3.org/2000/svg">
  <defs
     id="defs1">
    <clipPath
       clipPathUnits="userSpaceOnUse"
       id="clipPath19">
      <path
         d="M 0,5035.667 H 1366 V 0 H 0 Z"
         transform="translate(-1142.761,-3889.1385)"
         id="path19" />
    </clipPath>
    <clipPath
       clipPathUnits="userSpaceOnUse"
       id="clipPath21">
      <path
         d="M 0,5035.667 H 1366 V 0 H 0 Z"
         transform="translate(-1145.6997,-3914.1244)"
         id="path21" />
    </clipPath>
    <clipPath
       clipPathUnits="userSpaceOnUse"
       id="clipPath23">
      <path
         d="M 0,5035.667 H 1366 V 0 H 0 Z"
         transform="translate(-1119.2269,-3923.3888)"
         id="path23" />
    </clipPath>
    <clipPath
       clipPathUnits="userSpaceOnUse"
       id="clipPath25">
      <path
         d="M 0,5035.667 H 1366 V 0 H 0 Z"
         transform="translate(-1112.4642,-3892.3326)"
         id="path25" />
    </clipPath>
    <clipPath
       clipPathUnits="userSpaceOnUse"
       id="clipPath27">
      <path
         d="M 0,5035.667 H 1366 V 0 H 0 Z"
         transform="translate(-1132.3558,-3902.4603)"
         id="path27" />
    </clipPath>
    <clipPath
       clipPathUnits="userSpaceOnUse"
       id="clipPath29">
      <path
         d="M 0,5035.667 H 1366 V 0 H 0 Z"
         transform="translate(-1132.4052,-3899.5987)"
         id="path29" />
    </clipPath>
    <clipPath
       clipPathUnits="userSpaceOnUse"
       id="clipPath31">
      <path
         d="M 0,5035.667 H 1366 V 0 H 0 Z"
         transform="translate(-1132.3761,-3905.3231)"
         id="path31" />
    </clipPath>
    <clipPath
       clipPathUnits="userSpaceOnUse"
       id="clipPath33">
      <path
         d="M 0,5035.667 H 1366 V 0 H 0 Z"
         transform="translate(-1132.3771,-3895.203)"
         id="path33" />
    </clipPath>
  </defs>
  <sodipodi:namedview
     id="namedview1"
     pagecolor="#505050"
     bordercolor="#eeeeee"
     borderopacity="1"
     inkscape:showpageshadow="0"
     inkscape:pageopacity="0"
     inkscape:pagecheckerboard="0"
     inkscape:deskcolor="#505050"
     showgrid="false">
    <inkscape:page
       x="-5.8579859e-05"
       y="-9.8878363e-06"
       width="69.971313"
       height="67.923584"
       id="page2"
       margin="0"
       bleed="0" />
  </sodipodi:namedview>
  <g
     id="layer-MC0"
     inkscape:groupmode="layer"
     inkscape:label="Capa 1"
     transform="translate(1665.3561,-2874.2568)">
    <g
       id="g1857">
      <path
         id="path1846"
         d="M 0,0 C 0.365,0.34 0.756,0.705 1.102,1.028 0.467,1.661 -0.158,2.283 -0.665,2.788 -1.028,2.458 -1.424,2.095 -1.772,1.777 -1.192,1.195 -0.581,0.582 0,0 m -5.79,18.983 c 1.294,-0.569 2.141,-1.438 2.715,-2.71 0.582,1.29 1.442,2.155 2.724,2.715 -1.284,0.56 -2.144,1.445 -2.729,2.699 -0.575,-1.268 -1.442,-2.125 -2.71,-2.704 m 0.736,2.356 c -3.731,2.215 -10.069,2.103 -14.059,-2.76 -3.719,-4.532 -3.291,-11.276 0.953,-15.289 4.356,-4.12 11.084,-4.169 15.466,-0.099 4.461,4.143 4.297,10.386 2.028,13.888 -0.218,-0.255 -0.426,-0.499 -0.636,-0.743 -0.25,-0.291 -0.238,-0.572 -0.089,-0.934 1.449,-3.54 1.115,-6.923 -1.22,-9.954 -2.338,-3.036 -5.548,-4.301 -9.321,-3.683 -3.943,0.646 -6.648,2.976 -7.814,6.808 -1.157,3.802 -0.273,7.243 2.616,9.988 2.921,2.773 6.406,3.399 10.202,2.082 0.54,-0.187 0.907,-0.121 1.302,0.192 0.185,0.147 0.356,0.313 0.572,0.504 m -3.054,-1.94 c -3.097,0.995 -7.269,-0.105 -9.42,-3.747 -2.05,-3.475 -1.295,-7.874 1.795,-10.535 2.977,-2.563 7.49,-2.615 10.568,-0.13 3.303,2.667 3.545,6.868 2.615,9.003 -0.891,-0.201 -1.358,-0.008 -1.591,0.808 -0.468,1.64 -1.493,2.662 -3.13,3.127 -0.759,0.216 -0.973,0.659 -0.837,1.474 M -20.63,19.352 h -0.504 c -4.458,0 -8.916,-0.001 -13.374,0.001 -0.187,0 -0.383,-0.017 -0.56,0.031 -0.389,0.105 -0.614,0.367 -0.586,0.787 0.027,0.416 0.271,0.651 0.677,0.707 0.167,0.023 0.341,0.011 0.511,0.011 4.971,0 9.941,-10e-4 14.911,0.004 0.199,0 0.442,-0.014 0.588,0.088 0.985,0.684 1.948,1.397 2.941,2.118 -0.539,0 -1.097,-0.022 -1.651,0.006 -0.564,0.028 -0.893,0.482 -0.736,0.981 0.136,0.427 0.477,0.543 0.886,0.543 1.333,-0.002 2.665,0.024 3.997,-0.01 0.691,-0.017 1.448,0.239 2.044,-0.362 0.027,-0.028 0.098,-0.016 0.148,-0.018 1.274,-0.052 2.548,-0.105 3.873,-0.159 0,0.085 0,0.268 0,0.45 10e-4,1.315 -0.008,2.631 0.004,3.946 0.006,0.685 0.635,1.105 1.13,0.728 0.217,-0.164 0.379,-0.535 0.386,-0.817 0.037,-1.502 0.012,-3.005 0.026,-4.508 10e-4,-0.158 0.069,-0.394 0.182,-0.457 0.363,-0.202 0.762,-0.339 1.176,-0.514 V 36.211 H -5.927 V 35.64 c 0,-1.128 0.009,-2.255 -0.005,-3.382 -0.007,-0.643 -0.516,-1.024 -1.053,-0.805 -0.386,0.157 -0.484,0.481 -0.483,0.874 0.007,2.084 0.003,4.167 0.003,6.251 0,0.182 0,0.365 0,0.565 H -39.61 v -43.6 h 32.125 v 3.363 c -0.052,0.013 -0.085,0.031 -0.116,0.027 -0.084,-0.011 -0.167,-0.032 -0.251,-0.048 -1.714,-0.324 -3.461,-0.462 -5.126,0.062 -1.775,0.559 -3.56,0.51 -5.362,0.511 -5.363,0.004 -10.727,0.001 -16.09,0.002 -0.171,0 -0.343,-0.011 -0.512,0.007 -0.442,0.045 -0.733,0.362 -0.714,0.782 0.02,0.443 0.277,0.682 0.703,0.739 0.168,0.023 0.341,0.009 0.512,0.009 5.312,0 10.624,0 15.936,0 h 0.578 c -0.691,0.657 -1.315,1.278 -1.974,1.86 -0.193,0.17 -0.482,0.308 -0.735,0.322 -0.783,0.042 -1.571,0 -2.356,0.022 -0.638,0.019 -1.042,0.587 -0.732,1.07 0.146,0.226 0.5,0.4 0.782,0.439 0.508,0.07 1.033,0.019 1.6,0.019 -0.301,0.622 -0.604,1.125 -0.791,1.667 -0.16,0.464 -0.418,0.55 -0.864,0.548 -3.826,-0.017 -7.652,-0.01 -11.478,-0.01 -0.154,0 -0.309,-0.009 -0.461,0.006 -0.433,0.043 -0.693,0.28 -0.717,0.721 -0.025,0.446 0.229,0.701 0.644,0.791 0.164,0.036 0.34,0.018 0.511,0.019 3.672,0 7.345,0 11.017,0 h 0.613 c -0.115,0.753 -0.221,1.454 -0.331,2.179 h -0.641 c -3.553,0 -7.106,-0.002 -10.659,0.004 -0.235,0 -0.541,-0.029 -0.69,0.1 -0.214,0.186 -0.454,0.519 -0.426,0.761 0.027,0.239 0.35,0.472 0.588,0.647 0.114,0.082 0.332,0.025 0.502,0.025 3.587,0.001 7.174,0.001 10.761,0.001 h 0.566 c 0.112,0.778 0.21,1.467 0.318,2.217 h -0.573 c -3.673,0 -7.345,0 -11.017,0.001 -0.171,0 -0.344,-0.009 -0.512,0.011 -0.388,0.045 -0.625,0.269 -0.668,0.657 -0.046,0.411 0.142,0.7 0.54,0.815 0.176,0.051 0.371,0.051 0.557,0.052 1.879,0.003 3.758,0.002 5.636,0.002 2.033,0 4.066,-0.006 6.098,0.01 0.179,0.002 0.445,0.104 0.521,0.242 0.569,1.024 1.1,2.07 1.668,3.157 m 31.928,-25.94 c -1.069,-1.117 -2.118,-2.254 -3.217,-3.34 -0.438,-0.433 -1.16,-0.383 -1.646,0.024 -0.313,0.262 -0.594,0.563 -0.884,0.852 -2.03,2.029 -4.054,4.063 -6.091,6.084 -0.432,0.428 -0.672,0.89 -0.544,1.509 0.021,0.098 -0.004,0.246 -0.069,0.313 -0.558,0.59 -1.131,1.167 -1.795,1.845 -0.016,-0.33 -0.031,-0.508 -0.032,-0.686 -10e-4,-2.425 10e-4,-4.851 -10e-4,-7.276 -0.001,-1.241 -0.463,-1.707 -1.693,-1.707 -7.055,-10e-4 -14.109,-10e-4 -21.163,0 -0.171,0 -0.344,-0.008 -0.511,0.019 -0.365,0.059 -0.576,0.289 -0.614,0.653 -0.039,0.385 0.121,0.681 0.498,0.793 0.223,0.066 0.47,0.069 0.707,0.069 6.832,0.003 13.664,0.003 20.497,0.003 h 0.701 v 7.434 c -0.471,-0.2 -0.903,-0.384 -1.368,-0.582 0,-1.26 10e-4,-2.522 -0.001,-3.784 -0.001,-1.188 -0.488,-1.676 -1.682,-1.676 -9.429,-10e-4 -18.857,0 -28.286,0 h -0.754 v -1.392 h 0.552 c 1.981,0 3.962,10e-4 5.944,-0.003 0.202,-0.001 0.415,-0.009 0.605,-0.07 0.373,-0.122 0.533,-0.413 0.49,-0.798 -0.04,-0.365 -0.255,-0.586 -0.619,-0.65 -0.1,-0.017 -0.204,-0.016 -0.306,-0.016 -2.255,-10e-4 -4.509,-0.006 -6.764,0.002 -0.978,0.003 -1.467,0.508 -1.479,1.494 -0.005,0.456 -0.001,0.913 -0.001,1.433 -0.514,0 -0.97,-0.006 -1.426,0.001 -1.002,0.017 -1.525,0.531 -1.525,1.52 -0.002,14.57 -0.002,29.139 0,43.709 0,0.993 0.511,1.504 1.52,1.515 1.076,0.013 2.152,0.004 3.228,0.004 9.531,0 19.062,0 28.593,-10e-4 0.205,0 0.411,0.004 0.614,-0.012 0.762,-0.061 1.258,-0.561 1.29,-1.327 0.021,-0.508 0.004,-1.018 0.004,-1.594 h 1.149 c 1.355,0 1.8,-0.45 1.8,-1.821 10e-4,-3.723 0,-7.447 0,-11.171 v -0.681 c 0.726,-0.107 0.927,-0.688 1.112,-1.287 0.416,-1.342 1.311,-2.206 2.642,-2.632 C 0.935,20.13 1.097,20.075 1.256,20.015 1.737,19.833 2.012,19.494 2.002,18.968 1.993,18.467 1.725,18.143 1.262,17.97 1.12,17.917 0.979,17.859 0.807,17.791 3.156,13.155 2.974,8.633 0.235,4.187 0.87,3.557 1.505,2.914 2.161,2.292 2.261,2.197 2.467,2.144 2.604,2.17 3.105,2.267 3.521,2.121 3.869,1.779 4.697,0.965 5.519,0.144 6.333,-0.684 6.705,-1.062 6.728,-1.502 6.426,-1.824 6.104,-2.169 5.652,-2.162 5.254,-1.771 4.478,-1.006 3.716,-0.226 2.984,0.51 2.17,-0.309 1.393,-1.091 0.647,-1.842 2.822,-4.016 5.064,-6.258 7.273,-8.466 8.011,-7.725 8.791,-6.943 9.632,-6.099 9.093,-5.576 8.49,-5 7.897,-4.413 c -0.27,0.267 -0.391,0.634 -0.142,0.921 0.181,0.208 0.526,0.291 0.813,0.378 0.094,0.029 0.262,-0.081 0.353,-0.17 0.694,-0.683 1.383,-1.37 2.059,-2.07 0.137,-0.142 0.214,-0.343 0.318,-0.516 z"
         style="fill:#0090b7;fill-opacity:1;fill-rule:nonzero;stroke:none"
         transform="matrix(1.3333333,0,0,-1.3333333,-1610.4503,2928.5383)"
         clip-path="url(#clipPath19)" />
      <path
         id="path1847"
         d="m 0,0 c 1.09,-0.072 1.393,-0.238 1.417,-0.761 0.024,-0.54 -0.227,-0.691 -1.436,-0.849 -0.073,-0.575 0.125,-1.416 -0.794,-1.422 -0.932,-0.007 -0.73,0.834 -0.801,1.445 -0.602,0.077 -1.447,-0.155 -1.426,0.807 0.02,0.9 0.821,0.714 1.421,0.782 0.092,0.585 -0.145,1.38 0.815,1.43 C -0.295,1.459 -0.15,1.176 0,0"
         style="fill:#0090b7;fill-opacity:1;fill-rule:nonzero;stroke:none"
         transform="matrix(1.3333333,0,0,-1.3333333,-1606.5321,2895.2238)"
         clip-path="url(#clipPath21)" />
      <path
         id="path1848"
         d="m 0,0 c 2.15,0 4.299,0.001 6.449,-0.001 0.187,0 0.378,0.004 0.56,-0.031 C 7.373,-0.102 7.571,-0.345 7.593,-0.71 7.616,-1.096 7.442,-1.38 7.062,-1.481 6.852,-1.536 6.623,-1.535 6.403,-1.535 2.121,-1.538 -2.161,-1.538 -6.444,-1.537 c -0.835,0 -1.201,0.236 -1.203,0.771 C -7.649,-0.23 -7.291,0 -6.449,0 -4.299,0 -2.15,0 0,0"
         style="fill:#0090b7;fill-opacity:1;fill-rule:nonzero;stroke:none"
         transform="matrix(1.3333333,0,0,-1.3333333,-1641.8291,2882.8712)"
         clip-path="url(#clipPath23)" />
      <path
         id="path1849"
         d="m 0,0 c -1.467,0 -2.934,0.002 -4.401,-0.001 -0.447,-0.001 -0.823,0.107 -0.943,0.598 -0.111,0.454 0.17,0.857 0.649,0.915 0.303,0.037 0.613,0.024 0.92,0.024 2.627,0.002 5.254,10e-4 7.881,10e-4 0.17,0 0.342,0.005 0.511,-0.01 C 5.07,1.485 5.375,1.188 5.386,0.789 5.398,0.373 5.078,0.022 4.605,0.011 3.668,-0.012 2.729,0.001 1.791,0 1.194,-0.001 0.597,0 0,0"
         style="fill:#0090b7;fill-opacity:1;fill-rule:nonzero;stroke:none"
         transform="matrix(1.3333333,0,0,-1.3333333,-1650.8461,2924.2795)"
         clip-path="url(#clipPath25)" />
      <path
         id="path1850"
         d="M 0,0 C 1.483,0 2.967,0.003 4.45,-0.001 5.068,-0.003 5.4,-0.271 5.405,-0.75 5.411,-1.231 5.071,-1.533 4.472,-1.534 c -2.967,-0.006 -5.933,-0.006 -8.9,0 -0.598,0.001 -0.937,0.306 -0.929,0.787 0.008,0.48 0.337,0.744 0.958,0.746 C -2.932,0.003 -1.466,0 0,0"
         style="fill:#0090b7;fill-opacity:1;fill-rule:nonzero;stroke:none"
         transform="matrix(1.3333333,0,0,-1.3333333,-1624.3239,2910.7759)"
         clip-path="url(#clipPath27)" />
      <path
         id="path1851"
         d="M 0,0 C 1.483,0 2.966,-0.003 4.45,0.002 4.842,0.003 5.157,-0.111 5.31,-0.5 5.468,-0.9 5.251,-1.357 4.826,-1.475 4.617,-1.532 4.388,-1.534 4.168,-1.535 1.372,-1.538 -1.423,-1.537 -4.219,-1.537 c -0.137,0 -0.274,-0.006 -0.409,0.007 -0.491,0.049 -0.784,0.347 -0.778,0.78 0.006,0.433 0.308,0.736 0.803,0.744 C -3.631,0.01 -2.66,0 -1.688,0 -1.125,0.001 -0.563,0 0,0"
         style="fill:#0090b7;fill-opacity:1;fill-rule:nonzero;stroke:none"
         transform="matrix(1.3333333,0,0,-1.3333333,-1624.258,2914.5914)"
         clip-path="url(#clipPath29)" />
      <path
         id="path1852"
         d="m 0,0 c 1.16,0 2.321,0.004 3.481,-0.001 0.585,-0.003 0.903,-0.264 0.92,-0.731 0.017,-0.48 -0.328,-0.8 -0.914,-0.802 -2.32,-0.007 -4.641,-0.007 -6.962,0 -0.587,0.002 -0.935,0.318 -0.921,0.796 0.013,0.464 0.337,0.733 0.915,0.736 C -2.321,0.004 -1.16,0 0,0"
         style="fill:#0090b7;fill-opacity:1;fill-rule:nonzero;stroke:none"
         transform="matrix(1.3333333,0,0,-1.3333333,-1624.2968,2906.9588)"
         clip-path="url(#clipPath31)" />
      <path
         id="path1853"
         d="m 0,0 c -0.717,0 -1.434,-0.007 -2.151,0.002 -0.602,0.008 -0.954,0.303 -0.953,0.772 0.002,0.463 0.357,0.757 0.958,0.76 1.434,0.007 2.869,0.007 4.303,0 C 2.754,1.531 3.112,1.231 3.109,0.769 3.107,0.305 2.749,0.01 2.151,0.002 1.434,-0.007 0.717,0 0,0"
         style="fill:#0090b7;fill-opacity:1;fill-rule:nonzero;stroke:none"
         transform="matrix(1.3333333,0,0,-1.3333333,-1624.2955,2920.4523)"
         clip-path="url(#clipPath33)" />
    </g>
  </g>
</svg>
