<?xml version="1.0" encoding="UTF-8" standalone="no"?>
<!-- Created with Inkscape (http://www.inkscape.org/) -->

<svg
   version="1.1"
   id="svg1"
   width="53.231445"
   height="21.020508"
   viewBox="0 0 53.231447 21.020508"
   sodipodi:docname="INKA -- WEBSITE_DR EDUARDO FLORES.pdf"
   xmlns:inkscape="http://www.inkscape.org/namespaces/inkscape"
   xmlns:sodipodi="http://sodipodi.sourceforge.net/DTD/sodipodi-0.dtd"
   xmlns="http://www.w3.org/2000/svg"
   xmlns:svg="http://www.w3.org/2000/svg">
  <defs
     id="defs1">
    <clipPath
       clipPathUnits="userSpaceOnUse"
       id="clipPath376">
      <path
         d="M 0,5035.667 H 1366 V 0 H 0 Z"
         transform="translate(-1309.779,-102.51133)"
         id="path376" />
    </clipPath>
    <clipPath
       clipPathUnits="userSpaceOnUse"
       id="clipPath378">
      <path
         d="M 0,5035.667 H 1366 V 0 H 0 Z"
         transform="translate(-1289.7315,-105.9446)"
         id="path378" />
    </clipPath>
    <clipPath
       clipPathUnits="userSpaceOnUse"
       id="clipPath380">
      <path
         d="M 0,5035.667 H 1366 V 0 H 0 Z"
         transform="translate(-1272.4423,-109.3265)"
         id="path380" />
    </clipPath>
    <clipPath
       clipPathUnits="userSpaceOnUse"
       id="clipPath382">
      <path
         d="M 0,5035.667 H 1366 V 0 H 0 Z"
         transform="translate(-1286.7324,-105.2993)"
         id="path382" />
    </clipPath>
    <clipPath
       clipPathUnits="userSpaceOnUse"
       id="clipPath384">
      <path
         d="M 0,5035.667 H 1366 V 0 H 0 Z"
         transform="translate(-1306.1979,-109.79593)"
         id="path384" />
    </clipPath>
    <clipPath
       clipPathUnits="userSpaceOnUse"
       id="clipPath386">
      <path
         d="M 0,5035.667 H 1366 V 0 H 0 Z"
         transform="translate(-1293.9862,-105.2546)"
         id="path386" />
    </clipPath>
    <clipPath
       clipPathUnits="userSpaceOnUse"
       id="clipPath388">
      <path
         d="M 0,5035.667 H 1366 V 0 H 0 Z"
         transform="translate(-1275.0819,-107.90023)"
         id="path388" />
    </clipPath>
  </defs>
  <sodipodi:namedview
     id="namedview1"
     pagecolor="#505050"
     bordercolor="#eeeeee"
     borderopacity="1"
     inkscape:showpageshadow="0"
     inkscape:pageopacity="0"
     inkscape:pagecheckerboard="0"
     inkscape:deskcolor="#505050"
     showgrid="false"
     inkscape:zoom="0.48434469"
     inkscape:cx="-6000.8916"
     inkscape:cy="1484.48"
     inkscape:window-width="1723"
     inkscape:window-height="1032"
     inkscape:window-x="1542"
     inkscape:window-y="0"
     inkscape:window-maximized="0"
     inkscape:current-layer="layer-MC0">
    <inkscape:page
       x="8.2119921e-05"
       y="0.00010715939"
       width="53.231445"
       height="21.020508"
       id="page2"
       margin="0"
       bleed="0" />
  </sodipodi:namedview>
  <g
     id="layer-MC0"
     inkscape:groupmode="layer"
     inkscape:label="Capa 1"
     transform="matrix(0.99990922,0,0,0.99990922,4384.9664,-6188.5675)">
    <g
       id="g2633">
      <path
         id="path2620"
         d="m 0,0 c -0.474,0.051 -0.946,0.115 -1.421,0.149 -3.735,0.267 -7.47,0.53 -11.205,0.788 -1.357,0.093 -2.707,0.104 -4.07,-0.025 -1.616,-0.153 -3.246,-0.148 -4.871,-0.204 -4.501,-0.155 -9.002,-0.3 -13.502,-0.465 -1.478,-0.054 -2.954,-0.16 -4.431,-0.23 -0.14,-0.007 -0.285,0.071 -0.427,0.11 0.051,0.128 0.082,0.27 0.158,0.38 0.189,0.274 0.426,0.518 0.594,0.803 0.195,0.332 0.441,0.393 0.816,0.387 1.943,-0.032 3.887,-0.05 5.829,-0.013 2.838,0.053 5.674,0.208 8.512,0.216 1.174,0.003 2.346,-0.288 3.523,-0.396 0.563,-0.051 1.155,-0.075 1.702,0.04 1.706,0.359 3.418,0.296 5.137,0.21 2.448,-0.123 4.897,-0.232 7.346,-0.349 1.158,-0.056 2.315,-0.124 3.472,-0.174 0.719,-0.031 1.275,0.227 1.523,1.008 C -0.853,1.535 -0.427,0.887 0,0.24 Z"
         style="fill:#ebfcff;fill-opacity:1;fill-rule:nonzero;stroke:none"
         transform="matrix(1.3333333,0,0,-1.3333333,-4332.129,6210.1521)"
         clip-path="url(#clipPath376)" />
      <path
         id="path2621"
         d="m 0,0 c 0,2.365 -0.004,4.682 0.003,6.999 0.001,0.557 0.238,1.021 0.611,1.434 2.01,2.23 4.492,3.543 7.481,3.881 0.698,0.079 1.29,-0.068 1.796,-0.627 1.689,-1.866 3.41,-3.703 5.118,-5.551 0.035,-0.038 0.062,-0.082 0.147,-0.195 -0.372,0 -0.683,0.008 -0.993,-10e-4 C 11.657,5.866 9.28,5.223 7.082,4.064 4.836,2.88 2.671,1.541 0.471,0.27 0.324,0.185 0.176,0.101 0,0"
         style="fill:#ebfcff;fill-opacity:1;fill-rule:nonzero;stroke:none"
         transform="matrix(1.3333333,0,0,-1.3333333,-4358.859,6205.5744)"
         clip-path="url(#clipPath378)" />
      <path
         id="path2622"
         d="m 0,0 c 0.226,0.272 0.367,0.482 0.546,0.652 1.582,1.506 3.196,2.979 4.749,4.515 1.028,1.018 2.248,1.339 3.636,1.319 2.226,-0.033 4.356,-0.494 6.406,-1.347 0.951,-0.396 1.274,-0.877 1.274,-1.895 0,-1.997 0,-3.995 0,-6.104 -0.254,0.119 -0.38,0.171 -0.5,0.235 -2.314,1.224 -4.797,1.88 -7.377,2.212 C 6.019,-0.064 3.288,-0.048 0.558,0 0.413,0.002 0.267,0 0,0"
         style="fill:#ebfcff;fill-opacity:1;fill-rule:nonzero;stroke:none"
         transform="matrix(1.3333333,0,0,-1.3333333,-4381.9112,6201.0652)"
         clip-path="url(#clipPath380)" />
      <path
         id="path2623"
         d="m 0,0 c -0.613,-0.036 -1.226,-0.086 -1.839,-0.105 -3.885,-0.123 -7.769,-0.237 -11.653,-0.358 -1.022,-0.032 -1.187,0.136 -1.079,1.134 0.05,0.458 0.217,0.678 0.697,0.732 0.752,0.086 1.511,0.135 2.268,0.166 C -7.925,1.722 -4.295,1.386 -0.734,0.411 -0.479,0.341 -0.23,0.25 0.022,0.169 0.015,0.112 0.007,0.056 0,0"
         style="fill:#ebfcff;fill-opacity:1;fill-rule:nonzero;stroke:none"
         transform="matrix(1.3333333,0,0,-1.3333333,-4362.8577,6206.4348)"
         clip-path="url(#clipPath382)" />
      <path
         id="path2624"
         d="m 0,0 c -2.746,-0.05 -5.404,-0.221 -7.898,-1.363 0.678,0.067 1.356,0.128 2.033,0.202 1.641,0.18 3.28,0.4 4.934,0.123 0.557,-0.094 1.109,-0.181 1.465,-0.792 -0.165,0 -0.302,0.002 -0.439,0 -2.37,-0.03 -4.741,-0.025 -7.109,-0.102 -1.908,-0.061 -3.786,-0.381 -5.619,-0.933 -0.074,-0.022 -0.15,-0.037 -0.258,-0.003 0.226,0.172 0.448,0.349 0.678,0.517 2.244,1.638 4.718,2.76 7.482,3.097 1.193,0.145 2.418,0.053 3.627,0.019 C -0.646,0.752 -0.344,0.389 0,0"
         style="fill:#ebfcff;fill-opacity:1;fill-rule:nonzero;stroke:none"
         transform="matrix(1.3333333,0,0,-1.3333333,-4336.9038,6200.4393)"
         clip-path="url(#clipPath384)" />
      <path
         id="path2625"
         d="M 0,0 C 4.189,1.564 8.529,1.881 12.979,1.617 V 0.332 0 Z"
         style="fill:#ebfcff;fill-opacity:1;fill-rule:nonzero;stroke:none"
         transform="matrix(1.3333333,0,0,-1.3333333,-4353.186,6206.4944)"
         clip-path="url(#clipPath386)" />
      <path
         id="path2626"
         d="M 0,0 C 2.916,0.216 5.802,0.111 8.628,-0.722 Z"
         style="fill:#ebfcff;fill-opacity:1;fill-rule:nonzero;stroke:none"
         transform="matrix(1.3333333,0,0,-1.3333333,-4378.3918,6202.9669)"
         clip-path="url(#clipPath388)" />
      <path
         id="path2627"
         d="m 0,0 c -0.474,0.051 -0.946,0.115 -1.421,0.149 -3.735,0.267 -7.47,0.53 -11.205,0.788 -1.357,0.093 -2.707,0.104 -4.07,-0.025 -1.616,-0.153 -3.246,-0.148 -4.871,-0.204 -4.501,-0.155 -9.002,-0.3 -13.502,-0.465 -1.478,-0.054 -2.954,-0.16 -4.431,-0.23 -0.14,-0.007 -0.285,0.071 -0.427,0.11 0.051,0.128 0.082,0.27 0.158,0.38 0.189,0.274 0.426,0.518 0.594,0.803 0.195,0.332 0.441,0.393 0.816,0.387 1.943,-0.032 3.887,-0.05 5.829,-0.013 2.838,0.053 5.674,0.208 8.512,0.216 1.174,0.003 2.346,-0.288 3.523,-0.396 0.563,-0.051 1.155,-0.075 1.702,0.04 1.706,0.359 3.418,0.296 5.137,0.21 2.448,-0.123 4.897,-0.232 7.346,-0.349 1.158,-0.056 2.315,-0.124 3.472,-0.174 0.719,-0.031 1.275,0.227 1.523,1.008 C -0.853,1.535 -0.427,0.887 0,0.24 Z"
         style="fill:#ebfcff;fill-opacity:1;fill-rule:nonzero;stroke:none"
         transform="matrix(1.3333333,0,0,-1.3333333,-4332.129,6210.1521)"
         clip-path="url(#clipPath376)" />
      <path
         id="path2628"
         d="m 0,0 c 0,2.365 -0.004,4.682 0.003,6.999 0.001,0.557 0.238,1.021 0.611,1.434 2.01,2.23 4.492,3.543 7.481,3.881 0.698,0.079 1.29,-0.068 1.796,-0.627 1.689,-1.866 3.41,-3.703 5.118,-5.551 0.035,-0.038 0.062,-0.082 0.147,-0.195 -0.372,0 -0.683,0.008 -0.993,-10e-4 C 11.657,5.866 9.28,5.223 7.082,4.064 4.836,2.88 2.671,1.541 0.471,0.27 0.324,0.185 0.176,0.101 0,0"
         style="fill:#ebfcff;fill-opacity:1;fill-rule:nonzero;stroke:none"
         transform="matrix(1.3333333,0,0,-1.3333333,-4358.859,6205.5744)"
         clip-path="url(#clipPath378)" />
      <path
         id="path2629"
         d="m 0,0 c 0.226,0.272 0.367,0.482 0.546,0.652 1.582,1.506 3.196,2.979 4.749,4.515 1.028,1.018 2.248,1.339 3.636,1.319 2.226,-0.033 4.356,-0.494 6.406,-1.347 0.951,-0.396 1.274,-0.877 1.274,-1.895 0,-1.997 0,-3.995 0,-6.104 -0.254,0.119 -0.38,0.171 -0.5,0.235 -2.314,1.224 -4.797,1.88 -7.377,2.212 C 6.019,-0.064 3.288,-0.048 0.558,0 0.413,0.002 0.267,0 0,0"
         style="fill:#ebfcff;fill-opacity:1;fill-rule:nonzero;stroke:none"
         transform="matrix(1.3333333,0,0,-1.3333333,-4381.9112,6201.0652)"
         clip-path="url(#clipPath380)" />
      <path
         id="path2630"
         d="m 0,0 c -0.613,-0.036 -1.226,-0.086 -1.839,-0.105 -3.885,-0.123 -7.769,-0.237 -11.653,-0.358 -1.022,-0.032 -1.187,0.136 -1.079,1.134 0.05,0.458 0.217,0.678 0.697,0.732 0.752,0.086 1.511,0.135 2.268,0.166 C -7.925,1.722 -4.295,1.386 -0.734,0.411 -0.479,0.341 -0.23,0.25 0.022,0.169 0.015,0.112 0.007,0.056 0,0"
         style="fill:#ebfcff;fill-opacity:1;fill-rule:nonzero;stroke:none"
         transform="matrix(1.3333333,0,0,-1.3333333,-4362.8577,6206.4348)"
         clip-path="url(#clipPath382)" />
      <path
         id="path2631"
         d="m 0,0 c -2.746,-0.05 -5.404,-0.221 -7.898,-1.363 0.678,0.067 1.356,0.128 2.033,0.202 1.641,0.18 3.28,0.4 4.934,0.123 0.557,-0.094 1.109,-0.181 1.465,-0.792 -0.165,0 -0.302,0.002 -0.439,0 -2.37,-0.03 -4.741,-0.025 -7.109,-0.102 -1.908,-0.061 -3.786,-0.381 -5.619,-0.933 -0.074,-0.022 -0.15,-0.037 -0.258,-0.003 0.226,0.172 0.448,0.349 0.678,0.517 2.244,1.638 4.718,2.76 7.482,3.097 1.193,0.145 2.418,0.053 3.627,0.019 C -0.646,0.752 -0.344,0.389 0,0"
         style="fill:#ebfcff;fill-opacity:1;fill-rule:nonzero;stroke:none"
         transform="matrix(1.3333333,0,0,-1.3333333,-4336.9038,6200.4393)"
         clip-path="url(#clipPath384)" />
      <path
         id="path2632"
         d="M 0,0 C 4.189,1.564 8.529,1.881 12.979,1.617 V 0.332 0 Z"
         style="fill:#ebfcff;fill-opacity:1;fill-rule:nonzero;stroke:none"
         transform="matrix(1.3333333,0,0,-1.3333333,-4353.186,6206.4944)"
         clip-path="url(#clipPath386)" />
      <path
         id="path2633"
         d="M 0,0 C 2.916,0.216 5.802,0.111 8.628,-0.722 Z"
         style="fill:#ebfcff;fill-opacity:1;fill-rule:nonzero;stroke:none"
         transform="matrix(1.3333333,0,0,-1.3333333,-4378.3918,6202.9669)"
         clip-path="url(#clipPath388)" />
    </g>
  </g>
</svg>
