<?xml version="1.0" encoding="UTF-8" standalone="no"?>
<!-- Created with Inkscape (http://www.inkscape.org/) -->

<svg
   version="1.1"
   id="svg1"
   width="372.40674"
   height="162.02686"
   viewBox="0 0 372.40675 162.02686"
   sodipodi:docname="INKA -- WEBSITE_DR EDUARDO FLORES.pdf"
   xmlns:inkscape="http://www.inkscape.org/namespaces/inkscape"
   xmlns:sodipodi="http://sodipodi.sourceforge.net/DTD/sodipodi-0.dtd"
   xmlns="http://www.w3.org/2000/svg"
   xmlns:svg="http://www.w3.org/2000/svg">
  <defs
     id="defs1">
    <clipPath
       clipPathUnits="userSpaceOnUse"
       id="clipPath344">
      <path
         d="M 0,5035.667 H 1366 V 0 H 0 Z"
         transform="translate(-200.2039,-325.62411)"
         id="path344" />
    </clipPath>
    <clipPath
       clipPathUnits="userSpaceOnUse"
       id="clipPath346">
      <path
         d="M 0,5035.667 H 1366 V 0 H 0 Z"
         transform="translate(-165.85161,-308.63833)"
         id="path346" />
    </clipPath>
    <clipPath
       clipPathUnits="userSpaceOnUse"
       id="clipPath349">
      <path
         d="M 0,5035.667 H 1366 V 0 H 0 Z"
         transform="translate(-419.73901,-226.93341)"
         id="path349" />
    </clipPath>
    <clipPath
       clipPathUnits="userSpaceOnUse"
       id="clipPath351">
      <path
         d="M 0,5035.667 H 1366 V 0 H 0 Z"
         transform="translate(-183.90291,-340.01638)"
         id="path351" />
    </clipPath>
    <clipPath
       clipPathUnits="userSpaceOnUse"
       id="clipPath353">
      <path
         d="M 0,5035.667 H 1366 V 0 H 0 Z"
         transform="translate(-218.15341,-276.21253)"
         id="path353" />
    </clipPath>
  </defs>
  <sodipodi:namedview
     id="namedview1"
     pagecolor="#505050"
     bordercolor="#eeeeee"
     borderopacity="1"
     inkscape:showpageshadow="0"
     inkscape:pageopacity="0"
     inkscape:pagecheckerboard="0"
     inkscape:deskcolor="#505050"
     showgrid="false"
     inkscape:zoom="0.48434469"
     inkscape:cx="-6000.8916"
     inkscape:cy="1484.48"
     inkscape:window-width="1723"
     inkscape:window-height="1032"
     inkscape:window-x="1542"
     inkscape:window-y="0"
     inkscape:window-maximized="0"
     inkscape:current-layer="layer-MC0">
    <inkscape:page
       x="9.0584712e-05"
       y="-1.2047359e-05"
       width="372.40674"
       height="162.02686"
       id="page2"
       margin="0"
       bleed="0" />
  </sodipodi:namedview>
  <g
     id="layer-MC0"
     inkscape:groupmode="layer"
     inkscape:label="Capa 1"
     transform="matrix(0.99990922,0,0,0.99990922,6757.3326,-6958.3234)">
    <g
       id="g2619">
      <text
         id="text2608"
         xml:space="preserve"
         x="-6650.5386"
         y="7111.9028"
         style="font-size:16px;stroke-width:1.33333"><tspan
           style="font-variant:normal;font-weight:normal;font-stretch:normal;font-size:16.6043px;font-family:'Myriad Pro';writing-mode:lr-tb;fill:#fbf9fa;fill-opacity:1;fill-rule:nonzero;stroke:none;stroke-width:1.33333"
           x="-6650.5386 -6640.9409 -6637.0557 -6631.626 -6622.4771 -6613.2783 -6609.3931 -6601.3896 -6597.8696 -6587.0767 -6578.7583 -6569.543 -6561.2241 -6555.8774 -6547.874 -6543.9556 -6540.4355 -6532.6147 -6529.0947 -6521.2573 -6513.2544 -6503.8066 -6495.8032 -6490.5396 -6481.4238 -6474.8486 -6467.4927 -6458.377 -6448.9292 -6445.0439 -6437.605"
           y="7111.9028"
           sodipodi:role="line"
           id="tspan2608">Cirugía General y Laparoscópica</tspan></text>
      <path
         id="path2608"
         d="m 0,0 c -0.033,0.005 -0.043,0.049 -0.011,0.06 1.551,0.595 19.013,6.85 29.246,-8.85 9.977,-15.307 6.339,-29.977 5.79,-31.928 -0.011,-0.036 -0.848,-0.059 -0.848,-0.022 C 34.176,-37.648 34.151,-4.678 0,0"
         style="fill:#fbf9fa;fill-opacity:1;fill-rule:nonzero;stroke:none"
         transform="matrix(1.3333333,0,0,-1.3333333,-6683.2166,6978.1452)"
         clip-path="url(#clipPath344)" />
      <path
         id="path2609"
         d="m 0,0 c -2.616,-3.462 -20.038,-27.595 -10.247,-43.915 3.523,1.37 14.009,7.487 29.61,-7.926 7.674,-4.257 20.103,-10.72 30.475,1.762 l 6.362,9.823 c -0.206,-3.815 -1.195,-6.749 -1.977,-8.582 -0.538,-1.264 -3.328,-7.516 -10.012,-11.663 -0.107,-0.068 -0.215,-0.135 -0.337,-0.206 -8.204,-4.833 -22.15,-2.679 -37.093,6.518 -1.908,1.174 -7.78,4.623 -11.23,0.954 0,0 0.465,-2.569 7.266,-6.582 6.707,-4.164 13.138,-9.859 31.149,-7.131 5.104,0.773 9.99,2.565 14.343,5.339 6.826,4.348 16.388,12.532 21.297,26.502 0,0 -0.282,-10.177 -3.468,-15.56 -4.165,-6.165 -15.908,-32.196 -56.03,-22.018 -6.85,2.153 -14.777,5.872 -19.865,12.232 -1.077,-3.817 -1.762,-5.284 -1.713,-6.801 -3.327,-0.098 -10.226,0 -10.226,0 0,0 0.782,11.303 6.165,16.391 -2.238,6.227 -11.248,35.196 15.389,51.01 C -0.046,0.205 0.067,0.089 0,0"
         style="fill:#fbf9fa;fill-opacity:1;fill-rule:nonzero;stroke:none"
         transform="matrix(1.3333333,0,0,-1.3333333,-6729.0196,7000.7929)"
         clip-path="url(#clipPath346)" />
      <text
         id="text2609"
         xml:space="preserve"
         x="-6621.3364"
         y="7025.3052"
         style="font-size:16px;stroke-width:1.33333"><tspan
           style="font-variant:normal;font-weight:normal;font-stretch:normal;font-size:36.732px;font-family:'Myriad Pro';writing-mode:lr-tb;fill:#fbf9fa;fill-opacity:1;fill-rule:nonzero;stroke:none;stroke-width:1.33333"
           x="-6621.3364 -6596.873 -6586.7715"
           y="7025.3052"
           sodipodi:role="line"
           id="tspan2609">Dr.</tspan></text>
      <text
         id="text2610"
         xml:space="preserve"
         x="-6567.3154"
         y="7025.0347"
         style="font-size:16px;stroke-width:1.33333"><tspan
           style="font-variant:normal;font-weight:900;font-stretch:normal;font-size:30.2705px;font-family:Arial;writing-mode:lr-tb;fill:#fbf9fa;fill-opacity:1;fill-rule:nonzero;stroke:none;stroke-width:1.33333"
           x="-6567.3154 -6545.4604 -6525.27 -6505.0796 -6484.8892 -6470.7222 -6450.5317"
           y="7025.0347"
           sodipodi:role="line"
           id="tspan2610">Eduardo</tspan></text>
      <text
         id="text2611"
         xml:space="preserve"
         x="-6624.2739"
         y="7075.9473"
         style="font-size:16px;stroke-width:1.33333"><tspan
           style="font-variant:normal;font-weight:900;font-stretch:normal;font-size:59.7028px;font-family:Arial;writing-mode:lr-tb;fill:#fbf9fa;fill-opacity:1;fill-rule:nonzero;stroke:none;stroke-width:1.33333"
           x="-6624.2739 -6584.0342 -6564.1533 -6524.3315 -6496.8682 -6457.0464"
           y="7075.9473"
           sodipodi:role="line"
           id="tspan2611">Flores</tspan></text>
      <path
         id="path2611"
         d="M 0,0 C -1.292,0.053 -2.296,1.144 -2.242,2.436 -2.189,3.728 -1.098,4.733 0.194,4.679 1.486,4.625 2.491,3.534 2.436,2.242 2.383,0.95 1.292,-0.053 0,0 m -10.297,-3.294 c -1.293,0 -2.341,1.048 -2.341,2.341 0,1.293 1.048,2.342 2.341,2.342 1.293,0 2.342,-1.049 2.342,-2.342 0,-1.293 -1.049,-2.341 -2.342,-2.341 m 2.716,-1.934 c 0.082,1.436 0.133,2.922 0.147,4.453 0.036,3.875 -0.169,7.496 -0.521,10.823 0.353,-0.57 0.707,-1.144 1.059,-1.725 0.653,-1.077 1.55,-2.581 2.528,-4.294 0.943,-3.856 2.569,-5.138 4.746,-5.455 0.697,-0.008 1.24,0.155 1.668,0.399 0.928,0.53 1.391,1.385 1.561,1.925 0.601,1.909 -0.789,4.716 -3.131,5.237 -1.952,0.434 -3.559,-0.943 -3.768,-1.127 -1.125,0.782 -3.229,4.893 -3.621,6.997 -0.391,2.104 -0.929,2.936 -1.712,2.593 -0.783,-0.342 -0.832,-0.93 -1.712,-0.783 -0.882,0.146 -1.836,1.663 -1.836,1.663 l 0.091,2.927 h -1.505 c 0,0 -0.09,-2.486 -0.518,-2.486 -3.817,0.978 -4.746,-1.321 -4.746,-1.321 l -177.688,0.22 v -2.471 l 177.688,-0.025 c 0.32,-0.162 0.964,-0.436 1.816,-0.431 0.986,0.006 1.706,0.381 2.017,0.569 0.301,0.182 1.366,0.778 2.699,0.523 1.407,-0.269 2.563,-1.38 3.009,-2.863 0.44,-1.467 0.098,-7.216 0.098,-7.216 -2.755,-0.044 -4.722,-2.222 -4.648,-4.208 0.08,-2.18 2.628,-4.362 5.636,-3.729 l -0.922,-3.415 h 0.496"
         style="fill:#fbf9fa;fill-opacity:1;fill-rule:nonzero;stroke:none"
         transform="matrix(1.3333333,0,0,-1.3333333,-6390.5031,7109.7328)"
         clip-path="url(#clipPath349)" />
      <path
         id="path2612"
         d="m 0,0 h 9.042 c 0,0 -4.736,-16.245 1.918,-22.312 6.655,-6.262 40.644,-28.248 37.382,-42.47 -1.957,-6.851 -9.981,-17.615 -9.981,-17.615 0,0 9.115,16.522 0.937,27.246 -4.069,5.439 -7.396,8.571 -13.267,11.114 -4.845,2.349 -15.193,7.12 -21.468,15.221 -3.027,3.906 -4.576,8.761 -4.624,13.703 C -0.146,-6.248 0,0 0,0"
         style="fill:#fbf9fa;fill-opacity:1;fill-rule:nonzero;stroke:none"
         transform="matrix(1.3333333,0,0,-1.3333333,-6704.9512,6958.9555)"
         clip-path="url(#clipPath351)" />
      <path
         id="path2613"
         d="m 0,0 c 0,0 6.556,-15.363 -13.015,-20.159 0,0 11.156,4.501 13.015,20.159"
         style="fill:#fbf9fa;fill-opacity:1;fill-rule:nonzero;stroke:none"
         transform="matrix(1.3333333,0,0,-1.3333333,-6659.2839,7044.0273)"
         clip-path="url(#clipPath353)" />
      <text
         id="text2613"
         xml:space="preserve"
         x="-6650.5386"
         y="7111.9028"
         style="font-size:16px;stroke-width:1.33333"><tspan
           style="font-variant:normal;font-weight:normal;font-stretch:normal;font-size:16.6043px;font-family:'Myriad Pro';writing-mode:lr-tb;fill:#fbf9fa;fill-opacity:1;fill-rule:nonzero;stroke:none;stroke-width:1.33333"
           x="-6650.5386 -6640.9409 -6637.0557 -6631.626 -6622.4771 -6613.2783 -6609.3931 -6601.3896 -6597.8696 -6587.0767 -6578.7583 -6569.543 -6561.2241 -6555.8774 -6547.874 -6543.9556 -6540.4355 -6532.6147 -6529.0947 -6521.2573 -6513.2544 -6503.8066 -6495.8032 -6490.5396 -6481.4238 -6474.8486 -6467.4927 -6458.377 -6448.9292 -6445.0439 -6437.605"
           y="7111.9028"
           sodipodi:role="line"
           id="tspan2613">Cirugía General y Laparoscópica</tspan></text>
      <path
         id="path2614"
         d="m 0,0 c -0.033,0.005 -0.043,0.049 -0.011,0.06 1.551,0.595 19.013,6.85 29.246,-8.85 9.977,-15.307 6.339,-29.977 5.79,-31.928 -0.011,-0.036 -0.848,-0.059 -0.848,-0.022 C 34.176,-37.648 34.151,-4.678 0,0"
         style="fill:#fbf9fa;fill-opacity:1;fill-rule:nonzero;stroke:none"
         transform="matrix(1.3333333,0,0,-1.3333333,-6683.2166,6978.1452)"
         clip-path="url(#clipPath344)" />
      <path
         id="path2615"
         d="m 0,0 c -2.616,-3.462 -20.038,-27.595 -10.247,-43.915 3.523,1.37 14.009,7.487 29.61,-7.926 7.674,-4.257 20.103,-10.72 30.475,1.762 l 6.362,9.823 c -0.206,-3.815 -1.195,-6.749 -1.977,-8.582 -0.538,-1.264 -3.328,-7.516 -10.012,-11.663 -0.107,-0.068 -0.215,-0.135 -0.337,-0.206 -8.204,-4.833 -22.15,-2.679 -37.093,6.518 -1.908,1.174 -7.78,4.623 -11.23,0.954 0,0 0.465,-2.569 7.266,-6.582 6.707,-4.164 13.138,-9.859 31.149,-7.131 5.104,0.773 9.99,2.565 14.343,5.339 6.826,4.348 16.388,12.532 21.297,26.502 0,0 -0.282,-10.177 -3.468,-15.56 -4.165,-6.165 -15.908,-32.196 -56.03,-22.018 -6.85,2.153 -14.777,5.872 -19.865,12.232 -1.077,-3.817 -1.762,-5.284 -1.713,-6.801 -3.327,-0.098 -10.226,0 -10.226,0 0,0 0.782,11.303 6.165,16.391 -2.238,6.227 -11.248,35.196 15.389,51.01 C -0.046,0.205 0.067,0.089 0,0"
         style="fill:#fbf9fa;fill-opacity:1;fill-rule:nonzero;stroke:none"
         transform="matrix(1.3333333,0,0,-1.3333333,-6729.0196,7000.7929)"
         clip-path="url(#clipPath346)" />
      <text
         id="text2615"
         xml:space="preserve"
         x="-6621.3364"
         y="7025.3052"
         style="font-size:16px;stroke-width:1.33333"><tspan
           style="font-variant:normal;font-weight:normal;font-stretch:normal;font-size:36.732px;font-family:'Myriad Pro';writing-mode:lr-tb;fill:#fbf9fa;fill-opacity:1;fill-rule:nonzero;stroke:none;stroke-width:1.33333"
           x="-6621.3364 -6596.873 -6586.7715"
           y="7025.3052"
           sodipodi:role="line"
           id="tspan2615">Dr.</tspan></text>
      <text
         id="text2616"
         xml:space="preserve"
         x="-6567.3154"
         y="7025.0347"
         style="font-size:16px;stroke-width:1.33333"><tspan
           style="font-variant:normal;font-weight:900;font-stretch:normal;font-size:30.2705px;font-family:Arial;writing-mode:lr-tb;fill:#fbf9fa;fill-opacity:1;fill-rule:nonzero;stroke:none;stroke-width:1.33333"
           x="-6567.3154 -6545.4604 -6525.27 -6505.0796 -6484.8892 -6470.7222 -6450.5317"
           y="7025.0347"
           sodipodi:role="line"
           id="tspan2616">Eduardo</tspan></text>
      <text
         id="text2617"
         xml:space="preserve"
         x="-6624.2739"
         y="7075.9473"
         style="font-size:16px;stroke-width:1.33333"><tspan
           style="font-variant:normal;font-weight:900;font-stretch:normal;font-size:59.7028px;font-family:Arial;writing-mode:lr-tb;fill:#fbf9fa;fill-opacity:1;fill-rule:nonzero;stroke:none;stroke-width:1.33333"
           x="-6624.2739 -6584.0342 -6564.1533 -6524.3315 -6496.8682 -6457.0464"
           y="7075.9473"
           sodipodi:role="line"
           id="tspan2617">Flores</tspan></text>
      <path
         id="path2617"
         d="M 0,0 C -1.292,0.053 -2.296,1.144 -2.242,2.436 -2.189,3.728 -1.098,4.733 0.194,4.679 1.486,4.625 2.491,3.534 2.436,2.242 2.383,0.95 1.292,-0.053 0,0 m -10.297,-3.294 c -1.293,0 -2.341,1.048 -2.341,2.341 0,1.293 1.048,2.342 2.341,2.342 1.293,0 2.342,-1.049 2.342,-2.342 0,-1.293 -1.049,-2.341 -2.342,-2.341 m 2.716,-1.934 c 0.082,1.436 0.133,2.922 0.147,4.453 0.036,3.875 -0.169,7.496 -0.521,10.823 0.353,-0.57 0.707,-1.144 1.059,-1.725 0.653,-1.077 1.55,-2.581 2.528,-4.294 0.943,-3.856 2.569,-5.138 4.746,-5.455 0.697,-0.008 1.24,0.155 1.668,0.399 0.928,0.53 1.391,1.385 1.561,1.925 0.601,1.909 -0.789,4.716 -3.131,5.237 -1.952,0.434 -3.559,-0.943 -3.768,-1.127 -1.125,0.782 -3.229,4.893 -3.621,6.997 -0.391,2.104 -0.929,2.936 -1.712,2.593 -0.783,-0.342 -0.832,-0.93 -1.712,-0.783 -0.882,0.146 -1.836,1.663 -1.836,1.663 l 0.091,2.927 h -1.505 c 0,0 -0.09,-2.486 -0.518,-2.486 -3.817,0.978 -4.746,-1.321 -4.746,-1.321 l -177.688,0.22 v -2.471 l 177.688,-0.025 c 0.32,-0.162 0.964,-0.436 1.816,-0.431 0.986,0.006 1.706,0.381 2.017,0.569 0.301,0.182 1.366,0.778 2.699,0.523 1.407,-0.269 2.563,-1.38 3.009,-2.863 0.44,-1.467 0.098,-7.216 0.098,-7.216 -2.755,-0.044 -4.722,-2.222 -4.648,-4.208 0.08,-2.18 2.628,-4.362 5.636,-3.729 l -0.922,-3.415 h 0.496"
         style="fill:#fbf9fa;fill-opacity:1;fill-rule:nonzero;stroke:none"
         transform="matrix(1.3333333,0,0,-1.3333333,-6390.5031,7109.7328)"
         clip-path="url(#clipPath349)" />
      <path
         id="path2618"
         d="m 0,0 h 9.042 c 0,0 -4.736,-16.245 1.918,-22.312 6.655,-6.262 40.644,-28.248 37.382,-42.47 -1.957,-6.851 -9.981,-17.615 -9.981,-17.615 0,0 9.115,16.522 0.937,27.246 -4.069,5.439 -7.396,8.571 -13.267,11.114 -4.845,2.349 -15.193,7.12 -21.468,15.221 -3.027,3.906 -4.576,8.761 -4.624,13.703 C -0.146,-6.248 0,0 0,0"
         style="fill:#fbf9fa;fill-opacity:1;fill-rule:nonzero;stroke:none"
         transform="matrix(1.3333333,0,0,-1.3333333,-6704.9512,6958.9555)"
         clip-path="url(#clipPath351)" />
      <path
         id="path2619"
         d="m 0,0 c 0,0 6.556,-15.363 -13.015,-20.159 0,0 11.156,4.501 13.015,20.159"
         style="fill:#fbf9fa;fill-opacity:1;fill-rule:nonzero;stroke:none"
         transform="matrix(1.3333333,0,0,-1.3333333,-6659.2839,7044.0273)"
         clip-path="url(#clipPath353)" />
    </g>
  </g>
</svg>
